<svg width="56" height="56" viewBox="0 0 56 56" fill="none" xmlns="http://www.w3.org/2000/svg">
<path d="M45.4482 11.2026L39.2947 5.04928C39.0803 4.83417 38.8255 4.66348 38.545 4.54702C38.2645 4.43056 37.9638 4.37061 37.6601 4.37061C37.3564 4.37061 37.0557 4.43056 36.7752 4.54702C36.4947 4.66348 36.24 4.83417 36.0256 5.04928L17.5649 23.5091C17.1336 23.9428 16.8922 24.53 16.8937 25.1416V31.2949C16.8937 31.9069 17.1369 32.4938 17.5696 32.9265C18.0024 33.3593 18.5893 33.6024 19.2013 33.6024H25.3549C25.658 33.6026 25.9582 33.5431 26.2384 33.4273C26.5185 33.3115 26.7731 33.1417 26.9875 32.9274L45.4482 14.4676C45.6628 14.2533 45.833 13.9988 45.9491 13.7187C46.0652 13.4386 46.125 13.1383 46.125 12.8351C46.125 12.5319 46.0652 12.2316 45.9491 11.9515C45.833 11.6713 45.6628 11.4169 45.4482 11.2026ZM37.662 9.95075L40.5465 12.8351L38.4312 14.9503L35.5467 12.0659L37.662 9.95075ZM24.3934 28.9874H21.5089V26.1031L32.2777 15.3349L35.1621 18.2192L24.3934 28.9874ZM44.5848 26.0204V40.5248C44.5848 41.5448 44.1796 42.523 43.4583 43.2442C42.7371 43.9654 41.7588 44.3706 40.7388 44.3706H9.97098C8.95096 44.3706 7.97272 43.9654 7.25146 43.2442C6.5302 42.523 6.125 41.5448 6.125 40.5248V9.75846C6.125 8.73849 6.5302 7.7603 7.25146 7.03907C7.97272 6.31785 8.95096 5.91267 9.97098 5.91267H24.4761C25.0881 5.91267 25.675 6.15577 26.1078 6.58851C26.5406 7.02125 26.7837 7.60816 26.7837 8.22014C26.7837 8.83212 26.5406 9.41904 26.1078 9.85177C25.675 10.2845 25.0881 10.5276 24.4761 10.5276H10.7402V39.7557H39.9696V26.0204C39.9696 25.4084 40.2127 24.8215 40.6455 24.3888C41.0783 23.956 41.6652 23.7129 42.2772 23.7129C42.8892 23.7129 43.4762 23.956 43.9089 24.3888C44.3417 24.8215 44.5848 25.4084 44.5848 26.0204Z" fill="#7AA3FF"/>
</svg>
