<svg width="28" height="28" viewBox="0 0 28 28" fill="none" xmlns="http://www.w3.org/2000/svg">
<path d="M12.3333 27.3334C11.8611 27.3334 11.4656 27.1734 11.1467 26.8534C10.8267 26.5345 10.6667 26.139 10.6667 25.6667V15.6667L1 3.33341C0.583337 2.77786 0.521115 2.19453 0.813337 1.58342C1.10445 0.972304 1.61111 0.666748 2.33334 0.666748H25.6667C26.3889 0.666748 26.8961 0.972304 27.1883 1.58342C27.4794 2.19453 27.4167 2.77786 27 3.33341L17.3333 15.6667V25.6667C17.3333 26.139 17.1739 26.5345 16.855 26.8534C16.535 27.1734 16.1389 27.3334 15.6667 27.3334H12.3333ZM14 14.5001L22.25 4.00008H5.75L14 14.5001Z" fill="#CBCBCB"/>
</svg>
